<svg width="76" height="74" viewBox="0 0 76 74" fill="none" xmlns="http://www.w3.org/2000/svg">
<path d="M0 64.4583C0 69.7285 4.38752 74 9.79955 74H66.2002C71.6131 74 76 69.7279 76 64.4583V9.54195C76 4.27148 71.6125 0 66.2005 0H9.79984C4.38692 0 0 4.27205 0 9.54166V64.458V64.4583Z" fill="#563D7C"/>
<path d="M31.5157 32.7329V22.2535H40.9892C41.8917 22.2535 42.7616 22.3266 43.5994 22.4732C44.4371 22.6194 45.1784 22.8807 45.823 23.2574C46.4672 23.634 46.9829 24.157 47.3697 24.8261C47.7562 25.4956 47.9498 26.3533 47.9498 27.3988C47.9498 29.2815 47.3697 30.6412 46.2095 31.4778C45.0496 32.3146 43.5673 32.7329 41.7626 32.7329H31.5157ZM21.3973 14.5977V59.4023H43.6961C45.7585 59.4023 47.7672 59.1514 49.7221 58.6493C51.677 58.1472 53.417 57.3734 54.9424 56.3276C56.4674 55.2818 57.6813 53.9324 58.5835 52.2801C59.486 50.6276 59.937 48.6718 59.937 46.4127C59.937 43.6097 59.2387 41.2148 57.8425 39.2278C56.446 37.2405 54.3299 35.8495 51.4942 35.0546C53.5565 34.0926 55.1143 32.8583 56.167 31.3523C57.2194 29.8463 57.7458 27.9639 57.7458 25.7046C57.7458 23.6129 57.3913 21.856 56.6823 20.4335C55.9734 19.0114 54.9744 17.8713 53.6854 17.0136C52.3967 16.156 50.8499 15.5388 49.0452 15.1625C47.2408 14.7858 45.2429 14.5977 43.0516 14.5977H21.3973ZM31.5157 51.7465V39.4472H42.536C44.7272 39.4472 46.4888 39.9386 47.8209 40.922C49.1527 41.9051 49.8189 43.547 49.8189 45.8479C49.8189 47.0195 49.6146 47.9815 49.2064 48.7345C48.7982 49.4875 48.2505 50.0838 47.5629 50.5229C46.8757 50.9623 46.0806 51.2759 45.1784 51.4644C44.2759 51.6523 43.331 51.7465 42.3427 51.7465H31.5157Z" fill="white"/>
</svg>
