<svg width="189" height="64" viewBox="0 0 189 64" fill="none" xmlns="http://www.w3.org/2000/svg">
<path d="M1.22998 49.6661V25.1911H27.4921V23.7595H1.22998V1.43119H29.1525V0H0V51.0973H29.3984V49.6661H1.23035H1.22998ZM53.0776 14.3128L42.1917 30.9876L31.5512 14.3132H29.9521L41.4534 32.0614L28.8446 51.0969H30.3208L42.1909 33.134L54.1227 51.0969H55.6601L42.9905 32.0606L54.5531 14.3124H53.0773L53.0776 14.3128ZM59.3508 63.6929V40.7925H59.4737C60.212 44.1321 61.6675 46.8158 63.8407 48.8436C66.0138 50.871 68.7812 51.8851 72.1434 51.8851C74.3165 51.8851 76.2438 51.3722 77.9249 50.3465C79.6059 49.3208 81.0101 47.9253 82.1378 46.1599C83.2652 44.3945 84.1264 42.3431 84.7211 40.0052C85.3154 37.6676 85.6129 35.2103 85.6129 32.6344C85.6129 29.8669 85.3051 27.3143 84.6901 24.9767C84.0751 22.6388 83.1833 20.611 82.0149 18.8937C80.8462 17.1761 79.4317 15.8398 77.7709 14.8862C76.1105 13.9318 74.2346 13.4546 72.1434 13.4546C70.5443 13.4546 69.0581 13.7291 67.6845 14.2776C66.3109 14.8265 65.0913 15.6014 64.0252 16.6035C62.9529 17.6133 62.0195 18.8079 61.2574 20.1458C60.4785 21.5057 59.8838 22.9966 59.4737 24.619H59.3508V14.3128H58.1208V63.6929H59.3508ZM72.1434 50.5248C68.2895 50.5248 65.1936 48.9862 62.8565 45.909C60.5195 42.8319 59.3508 38.4064 59.3508 32.6336C59.3508 30.2479 59.638 27.9817 60.212 25.835C60.786 23.6882 61.6162 21.8034 62.7026 20.1815C63.7893 18.5591 65.1323 17.271 66.731 16.317C68.3301 15.3626 70.1345 14.8854 72.1434 14.8854C74.1936 14.8854 75.9876 15.3626 77.5251 16.317C79.0625 17.271 80.3339 18.5712 81.3383 20.2171C82.3427 21.8631 83.1013 23.7479 83.614 25.8706C84.1264 27.9938 84.3826 30.2479 84.3826 32.6336C84.3826 34.7808 84.1471 36.916 83.6753 39.0387C83.2039 41.1619 82.476 43.0703 81.4919 44.7643C80.5081 46.4576 79.2475 47.8411 77.7096 48.9149C76.1718 49.9883 74.3165 50.5248 72.1434 50.5248ZM92.3782 51.0973V30.272C92.3782 28.2682 92.624 26.3117 93.1165 24.4038C93.6082 22.4954 94.3667 20.8133 95.3918 19.3585C96.4169 17.9032 97.7185 16.7581 99.2974 15.9231C100.876 15.0881 102.752 14.7423 104.925 14.8854V13.4542C103.039 13.4069 101.389 13.6449 99.974 14.1698C98.5591 14.6947 97.3394 15.4103 96.3143 16.317C95.2892 17.2233 94.4694 18.2847 93.8544 19.5015C93.2399 20.7165 92.7838 22.0308 92.5011 23.4017H92.3782V14.3128H91.1482V51.0978H92.3782V51.0973ZM106.462 32.9914H132.909C132.991 30.4627 132.776 28.0299 132.263 25.6919C131.751 23.354 130.93 21.2785 129.803 19.4659C128.675 17.6528 127.22 16.1976 125.436 15.1001C123.653 14.0027 121.531 13.4542 119.071 13.4542C117.307 13.4542 115.585 13.8837 113.904 14.7428C112.223 15.6014 110.747 16.8535 109.476 18.4994C108.205 20.1454 107.18 22.1612 106.401 24.5472C105.622 26.9324 105.232 29.6518 105.232 32.7053C105.232 35.4246 105.499 37.9653 106.032 40.3269C106.565 42.6884 107.385 44.7403 108.492 46.4816C109.599 48.2229 111.024 49.5708 112.767 50.5248C114.509 51.4792 116.61 51.9323 119.071 51.8847C122.679 51.8847 125.713 50.7035 128.173 48.3423C130.633 45.9803 132.089 42.6528 132.54 38.3588H131.31C130.777 42.4144 129.413 45.4559 127.22 47.4833C125.026 49.5111 122.269 50.5248 118.947 50.5248C116.692 50.5248 114.786 50.0716 113.228 49.1653C111.67 48.259 110.399 47.0181 109.414 45.4439C108.431 43.8692 107.703 42.0205 107.231 39.8973C106.76 37.7746 106.503 35.4723 106.462 32.9914ZM131.679 31.5602H106.463C106.585 28.9838 106.995 26.67 107.692 24.6185C108.39 22.5667 109.302 20.8133 110.43 19.3585C111.557 17.9032 112.869 16.7942 114.366 16.0305C115.862 15.2672 117.472 14.8854 119.194 14.8854C121.244 14.8854 123.047 15.3269 124.606 16.2096C126.164 17.0923 127.466 18.2971 128.512 19.8237C129.557 21.3502 130.346 23.1276 130.879 25.155C131.412 27.1828 131.679 29.318 131.679 31.5602ZM158.433 25.1911H159.663C159.663 21.0878 158.638 18.106 156.588 16.2453C154.537 14.3845 151.749 13.4542 148.223 13.4542C146.255 13.4542 144.595 13.7407 143.241 14.3132C141.888 14.8854 140.781 15.625 139.92 16.5313C139.059 17.4376 138.444 18.4397 138.075 19.5372C137.706 20.6346 137.521 21.6844 137.521 22.6861C137.521 24.6898 137.829 26.2881 138.444 27.4809C139.059 28.6737 140.023 29.6041 141.335 30.272C142.237 30.7488 143.262 31.1783 144.41 31.5606C145.558 31.942 146.891 32.3475 148.408 32.7766C149.761 33.1589 151.093 33.5403 152.406 33.9217C153.718 34.3036 154.876 34.8164 155.88 35.4603C156.885 36.1046 157.705 36.9276 158.341 37.9297C158.976 38.9313 159.294 40.2435 159.294 41.8654C159.294 43.4401 158.976 44.7759 158.341 45.873C157.71 46.9647 156.881 47.8812 155.911 48.5571C154.927 49.2486 153.83 49.7495 152.621 50.0596C151.411 50.3697 150.232 50.5248 149.084 50.5248C145.353 50.5248 142.493 49.5588 140.505 47.6267C138.516 45.6943 137.522 42.6528 137.522 38.5018H136.292C136.292 43.13 137.368 46.5173 139.52 48.6645C141.673 50.8113 144.861 51.8847 149.084 51.8847C150.437 51.8847 151.801 51.7056 153.175 51.3478C154.548 50.99 155.778 50.4058 156.864 49.5944C157.942 48.7945 158.846 47.7173 159.509 46.446C160.186 45.1574 160.524 43.5831 160.524 41.7224C160.524 39.957 160.227 38.5258 159.632 37.4284C159.038 36.3314 158.259 35.4246 157.295 34.709C156.331 33.9934 155.245 33.4329 154.035 33.0274C152.819 32.6196 151.599 32.2258 150.376 31.8462C148.87 31.3867 147.363 30.9335 145.855 30.4868C144.564 30.1049 143.365 29.6518 142.258 29.1269C141.191 28.602 140.341 27.8507 139.705 26.8727C139.069 25.8947 138.752 24.4991 138.752 22.6861C138.752 22.3523 138.834 21.7557 138.998 20.8971C139.162 20.038 139.551 19.1674 140.166 18.2847C140.781 17.4024 141.724 16.6151 142.995 15.9231C144.266 15.2316 146.009 14.8854 148.223 14.8854C149.74 14.8854 151.124 15.0765 152.375 15.4579C153.625 15.8398 154.702 16.448 155.603 17.283C156.506 18.118 157.203 19.1794 157.695 20.4675C158.187 21.7561 158.433 23.3304 158.433 25.1911ZM186.909 25.1911H188.139C188.139 21.0878 187.114 18.106 185.064 16.2453C183.014 14.3845 180.226 13.4542 176.699 13.4542C174.731 13.4542 173.07 13.7407 171.718 14.3132C170.364 14.8854 169.257 15.625 168.396 16.5313C167.535 17.4376 166.92 18.4397 166.551 19.5372C166.182 20.6346 165.998 21.6844 165.998 22.6861C165.998 24.6898 166.305 26.2881 166.921 27.4809C167.535 28.6737 168.499 29.6041 169.811 30.272C170.713 30.7488 171.738 31.1783 172.886 31.5606C174.034 31.942 175.367 32.3475 176.884 32.7766C178.237 33.1589 179.57 33.5403 180.881 33.9217C182.194 34.3036 183.352 34.8164 184.357 35.4603C185.361 36.1046 186.181 36.9276 186.817 37.9297C187.452 38.9313 187.77 40.2435 187.77 41.8654C187.77 43.4401 187.452 44.7759 186.817 45.873C186.186 46.9646 185.357 47.8811 184.388 48.5571C183.403 49.2486 182.306 49.7495 181.097 50.0596C179.887 50.3697 178.708 50.5248 177.56 50.5248C173.829 50.5248 170.969 49.5588 168.981 47.6267C166.992 45.6943 165.998 42.6528 165.998 38.5018H164.768C164.768 43.13 165.844 46.5173 167.997 48.6645C170.149 50.8113 173.337 51.8847 177.56 51.8847C178.914 51.8847 180.277 51.7056 181.65 51.3478C183.024 50.99 184.254 50.4058 185.341 49.5944C186.418 48.7945 187.323 47.7173 187.985 46.446C188.662 45.1574 189 43.5831 189 41.7224C189 39.957 188.703 38.5258 188.108 37.4284C187.514 36.3314 186.735 35.4246 185.771 34.709C184.808 33.9934 183.721 33.4329 182.512 33.0274C181.295 32.6196 180.075 32.2258 178.852 31.8462C177.347 31.3867 175.84 30.9335 174.331 30.4868C173.04 30.1049 171.84 29.6518 170.733 29.1269C169.667 28.602 168.816 27.8507 168.181 26.8727C167.546 25.8947 167.228 24.4991 167.228 22.6861C167.228 22.3523 167.31 21.7557 167.474 20.8971C167.638 20.038 168.028 19.1674 168.642 18.2847C169.257 17.4024 170.2 16.6151 171.471 15.9231C172.743 15.2316 174.485 14.8854 176.699 14.8854C178.217 14.8854 179.6 15.0765 180.851 15.4579C182.102 15.8398 183.178 16.448 184.08 17.283C184.982 18.118 185.679 19.1794 186.171 20.4675C186.663 21.7561 186.909 23.3304 186.909 25.1911H186.909Z" fill="#222222"/>
</svg>
