<svg width="90" height="103" viewBox="0 0 90 103" fill="none" xmlns="http://www.w3.org/2000/svg">
<rect width="90" height="103" fill="white"/>
<path d="M15 25.75V68.6666H33.75V51.5C33.75 49.2235 34.5402 47.0403 35.9467 45.4306C37.3532 43.8209 39.2609 42.9166 41.25 42.9166H60C61.9891 42.9166 63.8968 43.8209 65.3033 45.4306C66.7098 47.0403 67.5 49.2235 67.5 51.5V68.6666H75V25.75H15ZM0 85.8333V77.25H15C13.0109 77.25 11.1032 76.3456 9.6967 74.736C8.29018 73.1263 7.5 70.9431 7.5 68.6666V25.75C7.5 23.4735 8.29018 21.2903 9.6967 19.6806C11.1032 18.0709 13.0109 17.1666 15 17.1666H75C76.9891 17.1666 78.8968 18.0709 80.3033 19.6806C81.7098 21.2903 82.5 23.4735 82.5 25.75V68.6666C82.5 70.9431 81.7098 73.1263 80.3033 74.736C78.8968 76.3456 76.9891 77.25 75 77.25H90V85.8333H67.5C67.5 88.1097 66.7098 90.2929 65.3033 91.9026C63.8968 93.5123 61.9891 94.4166 60 94.4166H41.25C39.2609 94.4166 37.3532 93.5123 35.9467 91.9026C34.5402 90.2929 33.75 88.1097 33.75 85.8333H0ZM43.125 85.8333C42.6277 85.8333 42.1508 86.0594 41.7992 86.4618C41.4475 86.8642 41.25 87.41 41.25 87.9791C41.25 88.5482 41.4475 89.094 41.7992 89.4965C42.1508 89.8989 42.6277 90.125 43.125 90.125C43.6223 90.125 44.0992 89.8989 44.4508 89.4965C44.8025 89.094 45 88.5482 45 87.9791C45 87.41 44.8025 86.8642 44.4508 86.4618C44.0992 86.0594 43.6223 85.8333 43.125 85.8333ZM58.125 85.8333C57.6277 85.8333 57.1508 86.0594 56.7992 86.4618C56.4475 86.8642 56.25 87.41 56.25 87.9791C56.25 88.5482 56.4475 89.094 56.7992 89.4965C57.1508 89.8989 57.6277 90.125 58.125 90.125C58.6223 90.125 59.0992 89.8989 59.4508 89.4965C59.8025 89.094 60 88.5482 60 87.9791C60 87.41 59.8025 86.8642 59.4508 86.4618C59.0992 86.0594 58.6223 85.8333 58.125 85.8333ZM48.75 85.8333V90.125H52.5V85.8333H48.75ZM41.25 51.5V81.5416H60V51.5H41.25Z" fill="black"/>
</svg>
