<svg width="65" height="92" viewBox="0 0 65 92" fill="none" xmlns="http://www.w3.org/2000/svg">
<path d="M32.4604 91.7676L6.00792 84.3969L0.112976 18.0345H64.887L58.986 84.3867L32.4604 91.7676Z" fill="#264DE4"/>
<path d="M53.934 80.1615L58.9766 23.4604H32.5V86.1257L53.934 80.1615Z" fill="#2965F1"/>
<path d="M13.6269 48.0735L14.3536 56.2126H32.5V48.0735H13.6269Z" fill="#EBEBEB"/>
<path d="M12.1664 31.5999L12.9035 39.7389H32.5V31.5999H12.1664Z" fill="#EBEBEB"/>
<path d="M32.5 69.2116L32.4645 69.221L23.4335 66.7734L22.8561 60.2822H14.7159L15.8519 73.0618L32.4627 77.6898L32.5 77.6797V69.2116Z" fill="#EBEBEB"/>
<path d="M15.3573 0H25.1783V4.12242H19.4644V8.24483H25.1789V12.367H15.3573V0Z" fill="black"/>
<path d="M27.1428 0H36.9642V3.58469H31.25V4.30157H36.9642V12.5464H27.1431V8.78205H32.8572V8.06517H27.1426V0H27.1428Z" fill="black"/>
<path d="M38.9286 0H48.75V3.58469H43.0358V4.30157H48.75V12.5464H38.9286V8.78205H44.6428V8.06517H38.9289V0H38.9286Z" fill="black"/>
<path d="M51.3213 48.0735L52.7851 31.5999H32.4721V39.7389H43.8984L43.1605 48.0735H32.4721V56.2125H42.4574L41.516 66.7683L32.4718 69.2184V77.686L49.0958 73.0618L49.2177 71.6866L51.1235 50.259L51.3213 48.0735Z" fill="white"/>
</svg>
