<svg width="62" height="92" viewBox="0 0 62 92" fill="none" xmlns="http://www.w3.org/2000/svg">
<path d="M61.8922 18.0345L56.2636 84.3867L30.9622 91.7676L5.73066 84.3969L0.107788 18.0345H61.8922Z" fill="#E44D26"/>
<path d="M31 86.1257L51.4447 80.1615L56.2546 23.4604H31V86.1257Z" fill="#F16529"/>
<path d="M20.058 39.7389H31V31.5999H11.6049L11.7899 33.7834L13.6911 56.2125H31V48.0735H20.7649L20.058 39.7389V39.7389Z" fill="#EBEBEB"/>
<path d="M21.8012 60.2822H14.0367L15.1202 73.0618L30.9644 77.6898L31 77.6797V69.2116L30.9661 69.221L22.352 66.7734L21.8012 60.2822V60.2822Z" fill="#EBEBEB"/>
<path d="M5.85608 0H9.78678V4.08648H13.3825V0H17.3135V12.3749H13.3828V8.23107H9.78702V12.3749H5.85632V0H5.85608Z" fill="black"/>
<path d="M22.4823 4.10381H19.0224V0H29.8758V4.10381H26.4137V12.3749H22.483V4.10381H22.4827H22.4823Z" fill="black"/>
<path d="M31.5982 0H35.6967L38.2179 4.34821L40.7367 0H44.8369V12.3749H40.9222V6.24122L38.2179 10.6412H38.1501L35.4441 6.24122V12.3749H31.5982V0Z" fill="black"/>
<path d="M46.7931 0H50.725V8.28459H56.2527V12.3749H46.7928V0H46.7931Z" fill="black"/>
<path d="M30.9734 56.2124H40.4979L39.5998 66.7682L30.9731 69.2183V77.6859L46.8299 73.0617L46.9461 71.6865L48.764 50.2589L48.9526 48.0734H30.9734V56.2124Z" fill="white"/>
<path d="M30.9734 39.719V39.7389H49.6564L49.8114 37.9096L50.164 33.7834L50.3488 31.5999H30.9734V39.7193V39.719Z" fill="white"/>
</svg>
