<svg width="79" height="76" viewBox="0 0 79 76" fill="none" xmlns="http://www.w3.org/2000/svg">
<path d="M0 0H79V76H0V0Z" fill="#F7DF1E"/>
<path d="M20.7721 63.511L26.8174 59.9912C27.9839 61.9806 29.0448 63.6639 31.5898 63.6639C34.0292 63.6639 35.5676 62.7459 35.5676 59.1751V34.8914H42.9914V59.2761C42.9914 66.6733 38.4841 70.0405 31.908 70.0405C25.9691 70.0405 22.5218 67.0815 20.7718 63.5104" fill="black"/>
<path d="M47.0238 62.7457L53.0686 59.3788C54.66 61.8788 56.7282 63.7153 60.3869 63.7153C63.4632 63.7153 65.4247 62.2357 65.4247 60.195C65.4247 57.7463 63.4095 56.8789 60.0156 55.4509L58.1601 54.685C52.8038 52.4919 49.2509 49.7369 49.2509 43.9212C49.2509 38.5643 53.4932 34.4829 60.1221 34.4829C64.8417 34.4829 68.2356 36.0647 70.6748 40.1969L64.8942 43.7683C63.6212 41.5747 62.2431 40.7075 60.1218 40.7075C57.9474 40.7075 56.5686 42.0339 56.5686 43.7683C56.5686 45.9108 57.9474 46.7786 61.129 48.105L62.9849 48.8701C69.2957 51.4722 72.8485 54.1248 72.8485 60.0931C72.8485 66.5217 67.5987 70.0414 60.5458 70.0414C53.6521 70.0414 49.1976 66.8785 47.0235 62.746" fill="black"/>
</svg>
