<svg width="94" height="61" viewBox="0 0 94 61" fill="none" xmlns="http://www.w3.org/2000/svg">
<g clip-path="url(#clip0_18:100)">
<path fill-rule="evenodd" clip-rule="evenodd" d="M87.5215 25.262C87.4371 25.3005 87.3522 25.7245 87.3522 25.9556C87.3353 27.4981 87.3185 31.5851 87.3185 34.3611C87.3185 34.4383 87.3691 34.5925 87.42 34.5925C87.6741 34.631 88.284 34.6694 88.8092 34.6694C89.5377 34.6694 89.9613 34.4384 90.1987 34.2073C90.8084 33.5129 91.0964 32.0092 91.0964 30.3509C91.0964 26.6115 89.9444 25.1847 88.2331 25.1847C88.1145 25.1463 87.776 25.1463 87.5215 25.262ZM91.8929 42.4966C91.8929 38.6795 90.656 36.5587 88.4197 36.5587C88.3179 36.5587 87.6063 36.5203 87.4369 36.5972C87.386 36.636 87.3185 36.7133 87.3185 36.8291C87.3185 39.5661 87.3014 43.9234 87.3522 45.6197C87.386 46.3522 87.6234 47.3933 87.9115 47.7017C88.2162 48.0873 88.9109 48.1642 89.3854 48.1642C90.7238 48.1642 91.8929 46.4679 91.8929 42.4966ZM84.0655 23.1417C84.2348 23.1417 84.743 23.257 86.0476 23.257C87.2845 23.257 88.2671 23.1801 89.47 23.1801C90.9439 23.1801 92.977 24.375 92.977 29.3875C92.977 31.855 92.2145 33.8217 91.215 34.7856C91.1644 34.824 91.1644 34.9009 91.215 34.9393C92.6381 35.7494 93.892 37.7541 93.892 41.5323C93.892 45.2341 92.8755 47.5859 91.4014 49.0512C90.5034 49.9378 89.3854 50.2461 88.2502 50.2461C87.386 50.2461 85.065 50.0151 83.7775 50.0924C83.642 49.9762 83.8961 48.5883 84.0145 48.3572C84.3196 48.3184 84.5567 48.2799 84.8787 48.0485C85.3362 47.779 85.3869 47.4702 85.4546 45.8896C85.4886 44.5401 85.4886 39.7587 85.4886 36.3661C85.4886 31.7009 85.5057 28.5393 85.4886 26.9972C85.4717 25.8023 85.2853 25.4162 84.9126 25.1847C84.6244 25.0694 84.1502 24.9148 83.7604 24.7995C83.6756 24.6065 83.9637 23.2954 84.0655 23.1417ZM74.2895 47.1234C74.6964 47.8554 75.4926 48.1638 76.2042 48.1638C77.1191 48.1638 78.0339 47.779 78.915 45.9661C79.813 44.116 80.4398 41.2628 80.4398 36.7133C80.4398 32.356 79.7113 28.8088 78.2203 26.7273C77.3732 25.5315 76.2889 25.031 75.0351 25.031C74.6624 25.031 74.3066 25.0694 74.0865 25.3005C74.0355 25.3778 73.917 25.7245 73.917 25.9172C73.8831 26.6884 73.8831 32.6259 73.8831 36.0962C73.8831 39.6818 73.8831 44.6943 73.917 45.2725C73.917 45.8512 74.0353 46.7378 74.2895 47.1234ZM70.4436 23.1412C70.7656 23.1412 72.0023 23.257 72.5953 23.257C73.6629 23.257 74.4252 23.1417 76.4413 23.1417C78.1355 23.1417 79.5587 24.1824 80.5752 26.1486C81.8119 28.5778 82.456 31.9323 82.456 36.0189C82.456 41.8411 81.2869 45.1957 80.1177 47.1234C78.949 49.0896 77.424 50.2461 75.2554 50.2461C74.1034 50.2461 72.1211 50.1692 70.4776 50.1304H70.4607C70.3761 49.7836 70.5962 48.4341 70.7317 48.3957C71.1723 48.2799 71.2909 48.2411 71.5112 48.0489C71.8668 47.7401 71.9348 47.316 71.9856 45.8896C72.0363 43.229 72.0194 40.029 72.0194 36.4046C72.0194 33.8217 72.0363 28.7704 72.0023 27.1509C71.9517 25.8018 71.6976 25.4546 71.1892 25.2232C70.9351 25.1079 70.5962 24.9533 70.122 24.838C70.054 24.5676 70.359 23.3723 70.4436 23.1412Z" fill="#8E714E"/>
<path fill-rule="evenodd" clip-rule="evenodd" d="M49.9436 48.6266C49.52 48.5109 49.2151 48.3571 48.8424 47.9715C48.7915 47.8942 48.7067 47.509 48.7067 47.3544C48.6729 46.0049 48.6729 42.1493 48.6729 39.5664C48.6729 37.4841 48.5205 35.6721 48.1307 34.3998C47.6732 32.9342 47.0127 32.0864 46.1654 32.0864C45.42 32.0864 44.4203 33.2429 43.5901 34.8623C43.5732 34.9008 43.4377 35.1711 43.4546 34.7466C43.4546 34.3225 43.4886 33.4744 43.5055 32.8957C43.5225 32.3559 43.3869 32.0864 43.3869 32.0864C42.8447 32.7031 41.32 33.5128 40.7607 33.6281C40.3543 33.8216 40.2526 34.7082 40.6763 35.0165H40.6932C41.1503 35.3249 41.4555 35.6721 41.6925 36.0193C41.8619 36.3276 41.845 36.7517 41.845 37.0989C41.8619 39.9901 41.8619 44.4243 41.8113 46.8534C41.7944 47.8173 41.6758 48.1641 41.3706 48.3183L41.4046 48.2798C41.1674 48.3956 40.9811 48.5109 40.693 48.5882C40.5913 48.8196 40.5913 50.0534 40.693 50.3233C40.8793 50.3233 41.8619 50.2076 42.6754 50.2076C43.7935 50.2076 44.3696 50.3233 44.6575 50.3233C44.7761 50.015 44.8101 48.8581 44.7423 48.5882C44.4203 48.5497 44.1831 48.4729 43.963 48.3183C43.658 48.1637 43.5732 47.8173 43.5561 47.0076C43.5225 44.9637 43.5225 40.6456 43.5225 37.7156C43.5225 36.9058 43.6241 36.5202 43.7256 36.2887C44.1154 35.5179 44.7423 34.9781 45.3014 34.9781C45.8435 34.9781 46.1992 35.3637 46.4703 35.8651C46.843 36.5586 46.9616 37.5614 47.0125 38.2938C47.0971 39.9517 47.0633 43.229 47.0633 46.0822C47.0633 47.6243 47.0125 48.0099 46.7586 48.2025C46.6398 48.3183 46.3348 48.4729 45.979 48.5493C45.8604 48.8196 45.8944 50.015 45.979 50.2849C46.4703 50.2849 47.0464 50.1692 47.8935 50.1692C48.9439 50.1692 49.6217 50.2849 49.8929 50.2849C49.9773 50.0534 50.0113 48.9354 49.9436 48.6266ZM54.6366 33.8989C53.7388 33.8989 53.1796 35.4794 53.1796 37.9466C53.1796 40.453 53.6709 43.3447 55.0601 43.3447C55.2973 43.3447 55.738 43.1132 55.941 42.5734C56.263 41.8799 56.4833 40.4915 56.4833 39.0262C56.4833 35.8262 55.7886 33.8985 54.6366 33.8985V33.8989ZM54.518 50.94C54.1792 50.94 53.9419 51.1715 53.7895 51.3645C53.0779 52.4049 52.756 53.4076 52.756 54.6034C52.756 55.721 52.9424 56.6076 53.349 57.3789C53.8403 58.3427 54.518 58.8057 55.382 58.8057C57.1101 58.8057 57.8726 56.6849 57.8726 54.6034C57.8726 53.1377 57.5506 52.1738 56.89 51.6344C56.4156 51.1715 55.5516 50.94 54.518 50.94ZM54.6366 60.9649C53.6031 60.9649 52.8576 60.4635 52.2139 59.3455C51.5869 58.2659 51.3159 56.6465 51.3159 55.5284C51.3159 55.2201 51.3499 54.3715 51.6548 53.6006C51.841 53.1377 52.2478 52.2511 53.2135 50.7474C53.2473 50.709 53.2642 50.6705 53.2642 50.5928C53.2642 50.516 53.2303 50.4387 53.1965 50.4006C52.4002 49.7067 52.163 48.5882 52.0951 47.9715V47.8942C52.0784 47.6627 52.0444 47.4317 52.197 47.2002C52.3156 47.0076 52.485 46.7761 52.6712 46.5067C52.9593 46.1206 53.2642 45.6965 53.4506 45.3493C53.4845 45.2725 53.4845 45.1956 53.4845 45.1183C53.4845 45.041 53.4506 44.9637 53.4166 44.9257C52.2309 44.0387 51.6379 42.0336 51.6379 39.0262C51.6379 37.06 52.0275 35.2864 52.7221 34.1684C53.1965 33.3202 54.3825 32.279 55.1618 32.279H55.2127C56.0089 32.3175 56.4494 32.7031 57.0762 33.2045C57.4151 33.4744 57.7371 33.5897 58.1777 33.5897C58.8383 33.5897 59.1264 33.1272 59.3634 32.5878C59.3805 32.6647 59.4144 32.8577 59.4313 33.3587C59.4482 33.86 59.3805 34.5924 59.211 35.1322C59.0755 35.5563 58.7706 35.8651 58.4656 35.8651H58.3808C58.0758 35.7878 57.9402 35.7105 57.9402 35.7105L57.8726 35.7878C57.8557 35.8651 57.8726 35.942 57.8895 36.0577L57.9066 36.135C57.9403 36.4818 58.0081 37.5225 58.0081 37.7929C58.0081 40.9544 57.4491 42.3419 56.856 43.3831C56.2799 44.347 55.6194 44.9637 54.8738 45.1183C54.8569 45.1183 54.7893 45.1183 54.6366 45.1567C54.5519 45.1567 54.4333 45.1956 54.4163 45.1956H54.3994C54.2639 45.2725 53.9252 45.6581 53.9252 46.3132C53.9252 46.8915 54.0775 47.5859 54.806 47.7016C54.9584 47.74 55.1108 47.74 55.2804 47.7789C56.2461 47.9326 57.4491 48.1257 58.0081 48.5497C58.7875 49.2049 59.2787 50.7859 59.2787 52.6752C59.2787 55.5288 58.381 58.189 56.89 59.8464C56.1615 60.5793 55.4328 60.9649 54.6366 60.9649ZM64.2936 34.0915C63.938 34.0915 63.616 34.2837 63.3788 34.6693C62.7182 35.5948 62.3793 37.4457 62.3793 40.1443C62.3793 45.1956 63.4974 48.7428 65.09 48.7428C65.5644 48.7428 65.9371 48.434 66.259 47.8173C66.7503 46.8915 67.0046 45.041 67.0046 42.4577C67.0046 37.4457 65.9032 34.0911 64.2938 34.0911L64.2936 34.0915ZM64.5987 50.5932C61.7185 50.5932 60.6851 45.7738 60.6851 41.2628C60.6851 38.1012 61.2441 35.6721 62.3622 33.9369C63.1586 32.8188 64.1074 32.2022 64.9545 32.2022C67.1569 32.2022 68.6988 35.7878 68.6988 40.9544C68.6988 44.4627 68.0889 47.2387 66.9197 48.9354C66.3607 49.7835 65.395 50.5932 64.5986 50.5932H64.5987ZM34.4075 34.0911C34.0517 34.0911 33.7298 34.2837 33.4925 34.6693C32.8319 35.5948 32.493 37.4457 32.493 40.1443C32.493 45.1956 33.6111 48.7428 35.2037 48.7428C35.6781 48.7428 36.0508 48.434 36.3729 47.8173C36.864 46.8915 37.1182 45.041 37.1182 42.4577C37.1182 37.4457 36.0339 34.0911 34.4075 34.0911ZM34.7124 50.5932C31.8322 50.5932 30.7988 45.7738 30.7988 41.2628C30.7988 38.1012 31.3578 35.6721 32.4759 33.9369C33.2723 32.8188 34.2211 32.2022 35.0682 32.2022C37.2708 32.2022 38.8124 35.7878 38.8124 40.9544C38.8124 44.4627 38.2025 47.2387 37.0334 48.9354C36.4913 49.7835 35.5256 50.5932 34.7124 50.5932ZM15.3473 50.2076C15.3134 50.0923 15.2794 49.7451 15.2965 49.321C15.2965 49.0123 15.3304 48.8196 15.3473 48.7428C15.7031 48.6266 15.8895 48.5109 16.0927 48.3956C16.4316 48.2025 16.5671 47.7789 16.584 46.815C16.6351 44.5016 16.6351 40.1058 16.618 37.06V36.9827C16.618 36.6359 16.618 36.2114 16.4316 35.9031C16.1605 35.5179 15.8386 35.1711 15.4151 34.9004C15.2627 34.7855 15.161 34.5924 15.1779 34.3614C15.1779 34.1299 15.2796 33.86 15.4999 33.7827C16.0589 33.667 17.5158 32.8577 18.0919 32.279C18.1258 32.3559 18.1767 32.5878 18.1767 32.8961L18.1598 33.3198C18.1427 33.7443 18.1258 34.2457 18.1258 34.7466C18.1258 34.9008 18.1938 35.0165 18.2613 35.0165C18.2953 35.0165 18.3293 34.9781 18.363 34.9392C19.4473 33.0115 20.4299 32.3175 20.9381 32.3175C21.7685 32.3175 22.4124 33.2045 22.9037 35.055C22.9375 35.1711 22.9714 35.2095 23.0223 35.2095C23.0561 35.2095 23.1067 35.1711 23.1238 35.0938C24.1235 33.3587 25.1231 32.3175 25.7837 32.3175C27.3593 32.3175 28.2912 34.9781 28.2912 39.4892C28.2912 40.7614 28.2912 42.4192 28.2743 43.9234C28.2743 45.2725 28.2575 46.5062 28.2575 47.3933C28.2575 47.5854 28.3759 48.2025 28.5622 48.3183C28.7994 48.5882 29.1214 48.7039 29.545 48.8581H29.5619C29.5959 49.128 29.5281 50.1303 29.4604 50.3233C29.3587 50.3233 29.2061 50.3233 29.0368 50.2849C28.6079 50.234 28.1785 50.2082 27.7491 50.2076C26.6987 50.2076 26.1566 50.246 25.6311 50.3233C25.5976 50.015 25.5805 49.0896 25.6311 48.8581C25.9363 48.7428 26.0887 48.6266 26.2752 48.5113C26.6141 48.2798 26.6987 47.9326 26.7158 46.9303C26.7158 46.1979 26.7834 39.9517 26.6817 38.448C26.5801 36.9058 26.0718 35.0938 24.9535 35.0938C24.53 35.0938 23.8694 35.4794 23.2255 36.5971C23.1917 36.6744 23.1576 36.867 23.1576 36.9827V37.0216C23.2255 37.8309 23.2255 38.7567 23.2255 40.1831V42.6891C23.2255 44.4243 23.2084 46.0437 23.2255 47.2771C23.2255 48.1257 23.4458 48.3183 23.6322 48.4729C23.7339 48.5109 23.8015 48.5497 23.8863 48.5882C24.0387 48.6655 24.1912 48.7428 24.4284 48.8581C24.4624 49.0127 24.4624 49.5136 24.4115 49.9377C24.3945 50.1692 24.3605 50.2845 24.3436 50.3233C23.7677 50.2849 23.1747 50.246 22.3107 50.246C22.0566 50.246 21.616 50.2849 21.2433 50.2849C20.9381 50.2849 20.6502 50.3233 20.481 50.3233C20.4639 50.246 20.4299 49.9766 20.4299 49.5521C20.4299 49.2053 20.4639 48.9354 20.4979 48.8581C20.5825 48.8196 20.6503 48.7812 20.7351 48.7812C20.9381 48.7039 21.1078 48.6266 21.277 48.5497C21.5653 48.3571 21.6668 48.0099 21.6837 47.1618C21.7346 45.234 21.7854 39.7206 21.6668 38.3322C21.4636 36.0961 20.9045 34.9781 20.0064 34.9781C19.4813 34.9781 18.8204 35.5563 18.2784 36.4822C18.1936 36.6359 18.1258 37.0212 18.1258 37.3684V39.6433C18.1258 42.4192 18.1258 45.8896 18.1427 47.3933C18.1598 47.8553 18.2274 48.3956 18.6171 48.5882C18.702 48.6266 18.8374 48.7039 19.0069 48.7428L19.3117 48.8581C19.3458 49.0896 19.3287 50.015 19.261 50.3233C19.0915 50.3233 18.8883 50.2849 18.6509 50.2849C18.2953 50.246 17.8378 50.2076 17.3296 50.2076C16.7366 50.2076 16.313 50.246 15.9741 50.2849C15.7369 50.2076 15.5506 50.2076 15.3473 50.2076Z" fill="#442D22"/>
<path fill-rule="evenodd" clip-rule="evenodd" d="M6.43551 59.4612L5.74097 58.921C5.74097 58.921 5.82579 50.8631 4.55495 50.2849C3.70804 48.0483 4.69081 -44.563 7.74031 49.9761C7.74031 49.9761 6.68978 51.171 6.50344 53.215C6.30001 55.22 6.43551 59.4612 6.43551 59.4612Z" fill="white"/>
<path fill-rule="evenodd" clip-rule="evenodd" d="M6.43551 59.4612L5.74097 58.921C5.74097 58.921 5.82579 50.8631 4.55495 50.2849C3.70804 48.0483 4.69081 -44.563 7.74031 49.9761C7.74031 49.9761 6.68978 51.171 6.50344 53.215C6.30001 55.22 6.43551 59.4612 6.43551 59.4612Z" fill="#A6A385"/>
<path fill-rule="evenodd" clip-rule="evenodd" d="M6.80838 51.6728C6.80838 51.6728 12.8908 42.5734 11.4674 23.6421C10.0953 9.87821 6.85924 5.36714 6.50343 3.63198C6.11385 2.39819 5.74097 0.23938 5.74097 0.23938L5.99524 38.5248C5.99524 38.5637 5.46998 50.246 6.80856 51.6732" fill="white"/>
<path fill-rule="evenodd" clip-rule="evenodd" d="M6.80838 51.6728C6.80838 51.6728 12.8908 42.5734 11.4674 23.6421C10.0953 9.87821 6.85924 5.36714 6.50343 3.63198C6.11385 2.39819 5.74097 0.23938 5.74097 0.23938L5.99524 38.5248C5.99524 38.5637 5.46998 50.246 6.80856 51.6732" fill="#499D4A"/>
<path fill-rule="evenodd" clip-rule="evenodd" d="M5.38535 52.1738C5.38535 52.1738 -0.324417 43.3059 0.0144968 27.6911C0.336337 12.0759 4.36861 4.40331 5.14796 3.01535C5.65633 1.78156 5.67322 1.31863 5.70719 0.0848389C6.06299 1.82 5.99525 26.0332 6.04592 28.886C6.1983 39.8744 5.77493 50.0923 5.38535 52.1738Z" fill="white"/>
<path fill-rule="evenodd" clip-rule="evenodd" d="M5.38535 52.1738C5.38535 52.1738 -0.324417 43.3059 0.0144968 27.6911C0.336337 12.0759 4.36861 4.40331 5.14796 3.01535C5.65633 1.78156 5.67322 1.31863 5.70719 0.0848389C6.06299 1.82 5.99525 26.0332 6.04592 28.886C6.1983 39.8744 5.77493 50.0923 5.38535 52.1738Z" fill="#58AA50"/>
</g>
<defs>
<clipPath id="clip0_18:100">
<rect width="94" height="61" fill="white"/>
</clipPath>
</defs>
</svg>
