<svg width="89" height="60" viewBox="0 0 89 60" fill="none" xmlns="http://www.w3.org/2000/svg">
<path d="M21.0002 15.6429H37.7864V17.1334H22.5389V28.3503H36.8773V29.8406H22.5389V42.1557H37.9613V43.646H21.0002V15.6429ZM39.2904 15.6429H41.0738L48.9773 27.9581L57.0556 15.6427L68.0435 0L49.9914 29.2524L59.2938 43.646H57.4403L48.9773 30.5466L40.4792 43.646H38.6608L48.0331 29.2522L39.2902 15.6429H39.2904ZM59.9582 17.1334V15.6427H79.0876V17.1332H70.2747V43.6458H68.736V17.1334H59.9582ZM0 15.6427H1.92341L28.4461 59.9773L17.4857 43.6458L1.60861 17.7608L1.53873 43.6462H0V15.6427ZM78.9326 41.7056C78.6181 41.7056 78.3824 41.4338 78.3824 41.0819C78.3824 40.7305 78.6181 40.4583 78.9326 40.4583C79.2507 40.4583 79.4827 40.7303 79.4827 41.0819C79.4827 41.4336 79.2507 41.7056 78.9326 41.7056ZM80.4445 40.0649H81.268C81.2791 40.5629 81.6047 40.8979 82.0837 40.8979C82.6189 40.8979 82.9221 40.5379 82.9221 39.8639V35.594H83.7605V39.868C83.7605 41.0819 83.1317 41.7812 82.0912 41.7812C81.1143 41.7812 80.4445 41.1029 80.4445 40.0647V40.0649ZM84.857 40.0105H85.6879C85.759 40.5839 86.2605 40.948 86.9829 40.948C87.6565 40.948 88.1505 40.5586 88.1505 40.0229C88.1505 39.5625 87.836 39.2862 87.1213 39.0979L86.4251 38.9095C85.4482 38.654 85.003 38.1266 85.003 37.2392C85.003 36.1635 85.7889 35.4476 86.9678 35.4476C88.0643 35.4476 88.8653 36.1633 88.914 37.1806H88.098C88.0194 36.6239 87.5852 36.2763 86.9565 36.2763C86.2942 36.2763 85.8527 36.6322 85.8527 37.1763C85.8527 37.6074 86.1369 37.8546 86.8405 38.0386L87.4355 38.2019C88.5434 38.4909 89 38.9932 89 39.9016C89 41.0569 88.1992 41.7812 86.9193 41.7812C85.7216 41.7812 84.9168 41.0903 84.857 40.0103V40.0105Z" fill="black"/>
</svg>
