<svg width="86" height="67" viewBox="0 0 86 67" fill="none" xmlns="http://www.w3.org/2000/svg">
<g clip-path="url(#clip0_18:75)">
<path d="M42.5146 66.8067C42.2235 66.8067 41.9517 66.7081 41.6992 66.5355L39.1174 64.5874C38.7291 64.3159 38.9232 64.2174 39.0398 64.1681C39.5639 63.9462 39.6609 63.8967 40.2045 63.5023C40.2628 63.4528 40.3405 63.4776 40.3987 63.5269L42.3788 65.0312C42.4565 65.0805 42.5535 65.0805 42.6117 65.0312L50.3575 59.3345C50.4351 59.2852 50.4741 59.1864 50.4741 59.0633V47.6946C50.4741 47.5711 50.4351 47.4727 50.3575 47.4232L42.6117 41.7512C42.5341 41.7017 42.437 41.7017 42.3788 41.7512L34.633 47.4232C34.5554 47.4725 34.5164 47.5958 34.5164 47.6944V59.0631C34.5164 59.1619 34.5554 59.285 34.633 59.3345L36.749 60.8881C37.8944 61.6278 38.6127 60.7647 38.6127 59.9016V48.6808C38.6127 48.533 38.7097 48.3849 38.8456 48.3849H39.8356C39.9522 48.3849 40.0686 48.5082 40.0686 48.6808V59.9016C40.0686 61.8497 39.2338 62.9843 37.7778 62.9843C37.3314 62.9843 36.982 62.9843 35.9918 62.3676L33.9535 60.8881C33.4488 60.5183 33.1382 59.8276 33.1382 59.0878V47.7191C33.1382 46.9794 33.4488 46.2887 33.9535 45.9189L41.6992 40.2222C42.1847 39.8769 42.8448 39.8769 43.3301 40.2222L51.0758 45.9189C51.5805 46.2887 51.8913 46.9794 51.8913 47.7191V59.0878C51.8913 59.8276 51.5805 60.5183 51.0758 60.8881L43.3301 66.5848C43.0776 66.7328 42.7865 66.8067 42.5147 66.8067H42.5146ZM44.9024 58.9892C41.5052 58.9892 40.8063 57.0164 40.8063 55.3394C40.8063 55.1914 40.9034 55.0435 41.0393 55.0435H42.0488C42.1652 55.0435 42.2623 55.1421 42.2623 55.2901C42.4177 56.5971 42.8641 57.2383 44.9219 57.2383C46.5525 57.2383 47.2516 56.7697 47.2516 55.6599C47.2516 55.0187 47.0573 54.5504 44.5142 54.2297C42.3982 53.9583 41.0781 53.3666 41.0781 51.2211C41.0781 49.2234 42.3983 48.0396 44.6113 48.0396C47.0961 48.0396 48.3192 49.1249 48.4746 51.4921C48.4746 51.5663 48.4551 51.6401 48.4163 51.7142C48.3773 51.7635 48.3192 51.8128 48.2609 51.8128H47.2515C47.1544 51.8128 47.0573 51.7142 47.038 51.5909C46.805 50.2346 46.2032 49.7906 44.6113 49.7906C42.8253 49.7906 42.6117 50.5799 42.6117 51.1716C42.6117 51.8868 42.8641 52.1087 45.2713 52.5032C47.6591 52.898 48.7852 53.4651 48.7852 55.5859C48.7657 57.7561 47.368 58.9892 44.9024 58.9892Z" fill="#539E43"/>
<path d="M18.4813 22.343C18.4813 21.8992 18.2871 21.4797 17.9765 21.2578L9.74538 15.2406C9.60932 15.1418 9.45412 15.0925 9.29892 15.0677H9.22115C9.06594 15.0677 8.91057 15.1418 8.77469 15.2406L0.543545 21.2578C0.232803 21.4797 0.0387993 21.899 0.0387993 22.343L0.0582837 38.5205C0.0582837 38.7424 0.15537 38.9643 0.310573 39.0631C0.465944 39.1865 0.659948 39.1865 0.796002 39.0631L5.68809 35.5119C5.99867 35.29 6.19284 34.8707 6.19284 34.4269V26.8559C6.19284 26.4121 6.38684 25.9928 6.69758 25.7709L8.77469 24.2418C8.93006 24.1185 9.10474 24.069 9.27943 24.069C9.45412 24.069 9.62881 24.1185 9.76486 24.2418L11.842 25.7709C12.1527 25.9928 12.3467 26.4119 12.3467 26.8559V34.4269C12.3467 34.8707 12.5409 35.29 12.8515 35.5119L17.7435 39.0631C17.8989 39.1865 18.0929 39.1865 18.2483 39.0631C18.4037 38.9643 18.5007 38.7424 18.5007 38.5205L18.4813 22.343Z" fill="#333333"/>
<path d="M58.0451 0.0739727C57.8899 -0.0248203 57.6958 -0.0248203 57.5597 0.0739727C57.4045 0.197304 57.3074 0.394463 57.3074 0.616374V16.6462C57.3074 16.7941 57.2493 16.942 57.1327 17.0408C57.0163 17.1146 56.8997 17.1146 56.7833 17.0408L54.7256 15.5365C54.5747 15.4273 54.4041 15.37 54.2305 15.37C54.0569 15.37 53.8862 15.4273 53.7354 15.5365L45.5042 21.5784C45.1937 21.8003 44.9995 22.2196 44.9995 22.6634V34.7226C44.9995 35.1664 45.1937 35.5859 45.5042 35.8078L53.7354 41.8498C53.8862 41.9589 54.0569 42.0162 54.2305 42.0162C54.4041 42.0162 54.5747 41.9589 54.7256 41.8498L62.9567 35.8078C63.2673 35.5859 63.4614 35.1666 63.4614 34.7226V4.66091C63.4614 4.19234 63.2673 3.77327 62.9567 3.55114L58.0453 0.0739727H58.0451ZM57.2881 30.7523C57.2881 30.8756 57.2493 30.9742 57.1715 31.0235L54.3567 33.0949C54.3174 33.1193 54.2742 33.132 54.2305 33.132C54.1867 33.132 54.1436 33.1193 54.1042 33.0949L51.2894 31.0235C51.2117 30.9742 51.1729 30.8509 51.1729 30.7523V26.6092C51.1729 26.4858 51.2117 26.3873 51.2894 26.338L54.1042 24.2663C54.1436 24.2419 54.1867 24.2293 54.2305 24.2293C54.2742 24.2293 54.3174 24.2419 54.3567 24.2663L57.1715 26.338C57.2493 26.387 57.2881 26.5106 57.2881 26.6092V30.7523Z" fill="#333333"/>
<path d="M85.437 26.5106C85.7477 26.2887 85.9224 25.8694 85.9224 25.4254V22.4908C85.9224 22.047 85.7282 21.6277 85.437 21.4058L77.2641 15.3886C77.1133 15.2795 76.9427 15.2222 76.7691 15.2222C76.5955 15.2222 76.4249 15.2795 76.2741 15.3886L68.043 21.4303C67.7322 21.6523 67.5382 22.0715 67.5382 22.5156V34.5747C67.5382 35.0185 67.7322 35.4378 68.043 35.6597L76.2158 41.5783C76.5266 41.8003 76.8953 41.8003 77.1865 41.5783L82.1367 38.0768C82.2921 37.9781 82.3892 37.7561 82.3892 37.5342C82.3892 37.3123 82.2921 37.0904 82.1367 36.9916L73.8668 30.9497C73.7116 30.8266 73.6145 30.6292 73.6145 30.4073V26.6341C73.6145 26.4122 73.7116 26.1903 73.8668 26.0915L76.4488 24.2172C76.5244 24.1568 76.6119 24.1248 76.7012 24.1248C76.7905 24.1248 76.878 24.1568 76.9535 24.2172L79.5354 26.0915C79.6908 26.2149 79.7878 26.412 79.7878 26.6341V29.5935C79.7878 29.8154 79.8849 30.0373 80.0401 30.1359C80.1955 30.2592 80.3895 30.2592 80.5449 30.1359L85.437 26.5106Z" fill="#333333"/>
<path d="M76.643 25.9434C76.6718 25.9193 76.7055 25.9065 76.74 25.9065C76.7744 25.9065 76.8082 25.9193 76.837 25.9434L78.4095 27.1025C78.4678 27.1516 78.5066 27.2256 78.5066 27.3244V29.6425C78.5066 29.7411 78.4678 29.8151 78.4095 29.8644L76.837 31.0235C76.8082 31.0476 76.7744 31.0604 76.74 31.0604C76.7055 31.0604 76.6718 31.0476 76.643 31.0235L75.0704 29.8644C75.0121 29.8151 74.9733 29.7411 74.9733 29.6425V27.3244C74.9733 27.2256 75.0121 27.1516 75.0704 27.1025L76.643 25.9434Z" fill="#539E43"/>
<mask id="mask0_18:75" style="mask-type:alpha" maskUnits="userSpaceOnUse" x="22" y="15" width="19" height="27">
<path d="M32.2451 15.4379C32.0943 15.3288 31.9237 15.2715 31.7501 15.2715C31.5766 15.2715 31.406 15.3288 31.2551 15.4379L23.0823 21.4302C22.7715 21.6521 22.5968 22.0713 22.5968 22.5152V34.5252C22.5968 34.9691 22.791 35.3883 23.0823 35.6103L31.2551 41.6029C31.406 41.712 31.5766 41.7694 31.7501 41.7694C31.9237 41.7694 32.0943 41.712 32.2451 41.6029L40.4181 35.6103C40.7287 35.3883 40.9036 34.9691 40.9036 34.5252V22.5154C40.9036 22.0716 40.7092 21.6523 40.4181 21.4304L32.2451 15.4379Z" fill="white"/>
</mask>
<g mask="url(#mask0_18:75)">
<path d="M32.2451 15.4379C32.0943 15.3288 31.9237 15.2715 31.7501 15.2715C31.5766 15.2715 31.406 15.3288 31.2551 15.4379L23.0823 21.4302C22.7715 21.6521 22.5968 22.0713 22.5968 22.5152V34.5252C22.5968 34.9691 22.791 35.3883 23.0823 35.6103L31.2551 41.6029C31.406 41.712 31.5766 41.7694 31.7501 41.7694C31.9237 41.7694 32.0943 41.712 32.2451 41.6029L40.4181 35.6103C40.7287 35.3883 40.9036 34.9691 40.9036 34.5252V22.5154C40.9036 22.0716 40.7092 21.6523 40.4181 21.4304L32.2451 15.4379Z" fill="url(#paint0_linear_18:75)"/>
<path d="M40.4375 21.4304L32.2258 15.4379C32.1451 15.3861 32.0605 15.3448 31.9734 15.3146L22.7715 35.3395C22.8477 35.4577 22.9398 35.5579 23.0435 35.6354L31.2551 41.6281C31.4881 41.8007 31.7599 41.85 32.0122 41.7512L40.6511 21.6772C40.5928 21.5786 40.5151 21.5044 40.4375 21.4306V21.4304Z" fill="url(#paint1_linear_18:75)"/>
<path fill-rule="evenodd" clip-rule="evenodd" d="M40.457 35.6104C40.6899 35.4378 40.8646 35.1418 40.9424 34.8213L31.9344 15.2898C31.7014 15.2405 31.449 15.265 31.2356 15.4376L23.0821 21.4058L31.8761 41.7757C32.004 41.7491 32.1282 41.6993 32.245 41.6278L40.4568 35.6106L40.457 35.6104Z" fill="url(#paint2_linear_18:75)"/>
<path fill-rule="evenodd" clip-rule="evenodd" d="M40.4569 35.6106L32.2646 41.6032C32.149 41.6781 32.0243 41.7281 31.8958 41.7511L32.0511 42.1211L41.1364 35.4382V35.2901L40.9034 34.7968C40.8646 35.142 40.6899 35.4379 40.4569 35.6106Z" fill="url(#paint3_linear_18:75)"/>
<path fill-rule="evenodd" clip-rule="evenodd" d="M40.4569 35.6106L32.2646 41.6032C32.149 41.6781 32.0243 41.7281 31.8958 41.7511L32.0511 42.1211L41.1364 35.4382V35.2901L40.9034 34.7968C40.8646 35.142 40.6899 35.4379 40.4569 35.6106Z" fill="url(#paint4_linear_18:75)"/>
</g>
</g>
<defs>
<linearGradient id="paint0_linear_18:75" x1="35.0798" y1="19.9052" x2="22.7967" y2="35.0984" gradientUnits="userSpaceOnUse">
<stop stop-color="#41873F"/>
<stop offset="0.3288" stop-color="#418B3D"/>
<stop offset="0.6352" stop-color="#419637"/>
<stop offset="0.9319" stop-color="#3FA92D"/>
<stop offset="1" stop-color="#3FAE2A"/>
</linearGradient>
<linearGradient id="paint1_linear_18:75" x1="30.5093" y1="29.9272" x2="55.074" y2="19.4212" gradientUnits="userSpaceOnUse">
<stop offset="0.1376" stop-color="#41873F"/>
<stop offset="0.4032" stop-color="#54A044"/>
<stop offset="0.7136" stop-color="#66B848"/>
<stop offset="0.9081" stop-color="#6CC04A"/>
</linearGradient>
<linearGradient id="paint2_linear_18:75" x1="22.2982" y1="28.5207" x2="41.2101" y2="28.5207" gradientUnits="userSpaceOnUse">
<stop offset="0.09192" stop-color="#6CC04A"/>
<stop offset="0.2864" stop-color="#66B848"/>
<stop offset="0.5968" stop-color="#54A044"/>
<stop offset="0.8624" stop-color="#41873F"/>
</linearGradient>
<linearGradient id="paint3_linear_18:75" x1="22.2983" y1="38.4791" x2="41.21" y2="38.4791" gradientUnits="userSpaceOnUse">
<stop offset="0.09192" stop-color="#6CC04A"/>
<stop offset="0.2864" stop-color="#66B848"/>
<stop offset="0.5968" stop-color="#54A044"/>
<stop offset="0.8624" stop-color="#41873F"/>
</linearGradient>
<linearGradient id="paint4_linear_18:75" x1="43.9652" y1="19.3373" x2="36.3969" y2="50.5558" gradientUnits="userSpaceOnUse">
<stop stop-color="#41873F"/>
<stop offset="0.3288" stop-color="#418B3D"/>
<stop offset="0.6352" stop-color="#419637"/>
<stop offset="0.9319" stop-color="#3FA92D"/>
<stop offset="1" stop-color="#3FAE2A"/>
</linearGradient>
<clipPath id="clip0_18:75">
<rect width="86" height="67" fill="white"/>
</clipPath>
</defs>
</svg>
