<svg width="96" height="86" viewBox="0 0 96 86" fill="none" xmlns="http://www.w3.org/2000/svg">
<path d="M78.9311 27.846C77.9095 27.4934 76.8791 27.1668 75.8411 26.8664C76.0155 26.1497 76.176 25.4417 76.3185 24.7462C78.6578 13.3244 77.1285 4.12278 71.9051 1.09316C66.897 -1.81122 58.7066 1.21726 50.4349 8.45823C49.6197 9.17314 48.8225 9.90865 48.0443 10.6641C47.5232 10.1617 46.993 9.66916 46.4539 9.18659C37.7846 1.44433 29.0951 -1.81877 23.8774 1.21952C18.8738 4.13296 17.3921 12.7831 19.4981 23.6078C19.7076 24.6799 19.9442 25.7464 20.2076 26.8064C18.9776 27.158 17.7907 27.5321 16.6549 27.9304C6.49087 31.4949 0 37.0808 0 42.8748C0 48.859 6.96825 54.8613 17.5545 58.5008C18.4127 58.7947 19.2781 59.067 20.1499 59.3174C19.8668 60.4591 19.6154 61.6085 19.3961 62.7642C17.3884 73.4011 18.9562 81.8468 23.9464 84.7418C29.1004 87.7314 37.7509 84.6588 46.1737 77.2526C46.8568 76.6505 47.5247 76.0313 48.177 75.3957C49.0198 76.2136 49.8852 77.0078 50.772 77.7773C58.9312 84.8391 66.9893 87.6907 71.9745 84.7878C77.1236 81.7895 78.7972 72.7165 76.6245 61.6779C76.4533 60.8131 76.2614 59.9526 76.0489 59.0972C76.6564 58.9161 77.2526 58.7298 77.8339 58.5359C88.8394 54.8684 96 48.939 96 42.8748C96 37.0596 89.2995 31.4361 78.9311 27.846ZM76.5443 54.6206C76.0192 54.7953 75.4808 54.9639 74.9317 55.128C73.7168 51.2591 72.0772 47.1454 70.0706 42.8948C71.9854 38.7457 73.5619 34.6845 74.7428 30.8409C75.7249 31.1268 76.6777 31.4282 77.5965 31.7461C86.4802 34.8225 91.899 39.3703 91.899 42.8748C91.899 46.6075 86.0467 51.4533 76.5443 54.6206ZM72.6015 62.4791C73.5622 67.3599 73.6991 71.7731 73.0628 75.2233C72.4912 78.3234 71.3415 80.3901 69.9195 81.218C66.8944 82.9795 60.4245 80.6899 53.4469 74.6503C52.622 73.9349 51.8171 73.1966 51.033 72.4362C53.7383 69.4605 56.4416 66.0013 59.0801 62.1592C63.7211 61.7451 68.1056 61.0676 72.0817 60.1431C72.2775 60.9379 72.4515 61.7171 72.6015 62.4791ZM32.7285 80.9136C29.7728 81.9633 27.4185 81.9935 25.9954 81.1682C22.9672 79.4116 21.7084 72.6301 23.4255 63.5337C23.6296 62.4588 23.8633 61.3898 24.1264 60.3279C28.0586 61.203 32.4113 61.8322 37.0631 62.2116C39.7196 65.9711 42.501 69.4266 45.3041 72.4524C44.7084 73.0322 44.0986 73.5972 43.4753 74.1468C39.7504 77.4216 36.018 79.7451 32.7285 80.9136ZM18.8812 54.5976C14.2001 52.9881 10.3343 50.8966 7.6845 48.6142C5.30325 46.5634 4.10138 44.5269 4.10138 42.8748C4.10138 39.3586 9.31275 34.8738 18.0049 31.8257C19.0597 31.4561 20.1637 31.1072 21.3094 30.7798C22.5109 34.7101 24.0866 38.8196 25.9883 42.9752C24.0619 47.1922 22.4636 51.3673 21.2505 55.3441C20.4548 55.1148 19.6648 54.8659 18.8812 54.5976ZM23.523 22.8153C21.7189 13.5413 22.917 6.54549 25.9324 4.78965C29.1439 2.91953 36.2456 5.58591 43.731 12.2713C44.2191 12.7082 44.6993 13.154 45.1714 13.6084C42.3821 16.6211 39.6263 20.0509 36.9934 23.7881C32.4784 24.2091 28.1565 24.885 24.183 25.7906C23.9382 24.8047 23.7181 23.8128 23.523 22.8157V22.8153ZM64.9331 33.1006C63.9946 31.47 63.0212 29.8599 62.0137 28.2714C65.0768 28.6611 68.0115 29.1782 70.7674 29.8104C69.9401 32.4779 68.9089 35.2665 67.695 38.1256C66.8077 36.4323 65.8869 34.757 64.9331 33.1006ZM48.0461 16.5566C49.9376 18.6179 51.8321 20.9192 53.6955 23.4162C49.9155 23.2366 46.1292 23.2359 42.3491 23.4139C44.2144 20.9399 46.125 18.6417 48.0461 16.5566ZM31.0508 33.1289C30.1089 34.7719 29.2053 36.4368 28.3406 38.1222C27.1466 35.2733 26.1248 32.4719 25.2904 29.7666C28.0294 29.1503 30.9503 28.6464 33.9938 28.2639C32.975 29.862 31.9938 31.484 31.0508 33.1285V33.1289ZM34.0811 57.7792C30.9368 57.4262 27.972 56.9483 25.2337 56.3486C26.0813 53.595 27.1256 50.734 28.3455 47.824C29.2136 49.5106 30.1209 51.1765 31.0669 52.8203C32.0396 54.5101 33.0469 56.1652 34.0811 57.7792ZM48.1594 69.4835C46.2154 67.3743 44.2766 65.0406 42.3833 62.5307C44.2215 62.6032 46.0954 62.6401 48 62.6401C49.9567 62.6401 51.891 62.596 53.7949 62.5107C51.9255 65.0659 50.0381 67.4029 48.1594 69.4835ZM67.7336 47.6754C69.0169 50.6175 70.0984 53.4634 70.9571 56.1698C68.1739 56.8087 65.1686 57.3232 62.0021 57.7053C63.0168 56.0874 63.9994 54.4493 64.9492 52.792C65.915 51.1074 66.8434 49.4015 67.7336 47.6754ZM61.3969 50.731C59.9427 53.2719 58.4068 55.7646 56.7915 58.2051C53.8656 58.4135 50.9332 58.5171 48 58.5155C45.0124 58.5155 42.1065 58.422 39.3083 58.2394C37.6508 55.8046 36.0856 53.3075 34.6159 50.7536H34.6162C33.1534 48.2133 31.7871 45.618 30.5201 42.9733C31.7839 40.328 33.1461 37.7314 34.6039 35.1891L34.6035 35.1895C36.0607 32.6466 37.6135 30.1602 39.2584 27.7358C42.1133 27.5186 45.0409 27.4054 47.9996 27.4054H48C50.9723 27.4054 53.9036 27.5197 56.7578 27.7385C58.386 30.1592 59.9289 32.637 61.3834 35.1673C62.846 37.704 64.2263 40.2878 65.5219 42.9148C64.2396 45.5686 62.8637 48.1757 61.3969 50.731ZM69.8569 4.66669C73.0714 6.53153 74.3216 14.0516 72.3019 23.9133C72.1729 24.5425 72.0281 25.1833 71.8706 25.8333C67.8874 24.9084 63.5625 24.2208 59.0344 23.7934C56.3966 20.0151 53.6632 16.58 50.9194 13.6062C51.6385 12.9089 52.3747 12.2298 53.1274 11.5693C60.2149 5.36563 66.8389 2.91614 69.8569 4.66669ZM48 34.2522C52.7344 34.2522 56.5725 38.1128 56.5725 42.8748C56.5725 47.6369 52.7344 51.4975 48 51.4975C43.2656 51.4975 39.4275 47.6369 39.4275 42.8748C39.4275 38.1128 43.2656 34.2522 48 34.2522Z" fill="#00D8FF"/>
</svg>
