<svg width="83" height="63" viewBox="0 0 83 63" fill="none" xmlns="http://www.w3.org/2000/svg">
<path d="M71.4192 36.2625C68.5317 36.2775 66.022 36.9814 63.9207 38.0219C63.1494 36.4764 62.3784 35.0996 62.2425 34.0896C62.0911 32.9116 61.9099 32.1924 62.0911 30.7847C62.2727 29.3771 63.0891 27.3726 63.0738 27.2197C63.0589 27.0668 62.8923 26.3475 61.2294 26.3324C59.5664 26.317 58.1301 26.6536 57.9638 27.0973C57.7975 27.5409 57.4801 28.5509 57.2684 29.591C56.9811 31.1214 53.9425 36.5834 52.2041 39.4446C51.6445 38.328 51.1607 37.3485 51.0547 36.5683C50.9036 35.3903 50.7221 34.671 50.9036 33.2634C51.0852 31.8557 51.9016 29.8515 51.8863 29.6983C51.8711 29.5454 51.7048 28.8262 50.0419 28.8111C48.3786 28.7956 46.9423 29.1323 46.7763 29.5759C46.61 30.0199 46.4284 31.06 46.0809 32.07C45.733 33.08 41.6965 42.1992 40.6382 44.5552C40.2106 45.5087 39.7619 46.4525 39.2927 47.3859C39.2927 47.3859 39.2775 47.4318 39.2321 47.5083C39.0847 47.8009 38.9336 48.0917 38.7788 48.3804V48.3955C38.5519 48.809 38.31 49.1912 38.1891 49.1912C38.0983 49.1912 37.932 48.0897 38.2192 46.5902C38.8239 43.4231 40.2602 38.4963 40.2453 38.328C40.2453 38.2361 40.5173 37.3794 39.308 36.9354C38.1284 36.4918 37.7053 37.2262 37.5993 37.2262C37.4936 37.2262 37.4178 37.4864 37.4178 37.4864C37.4178 37.4864 38.7334 31.9476 34.9083 31.9476C32.5198 31.9476 29.2238 34.5946 27.591 36.9814C25.7349 38.0036 23.8804 39.0288 22.0274 40.0569C21.1358 40.5619 20.2134 41.0669 19.3516 41.541C19.291 41.48 19.2307 41.4032 19.1701 41.3422C14.5438 36.3389 5.98702 32.8043 6.34982 26.0876C6.48599 23.6395 7.31729 17.2132 22.7835 9.41002C35.513 3.06014 45.6425 4.81955 47.3962 8.72128C49.9057 14.2909 41.9688 24.634 28.8156 26.1332C23.7964 26.6996 21.1656 24.741 20.5007 24.0067C19.8052 23.2415 19.6992 23.1955 19.4421 23.3488C19.019 23.5785 19.291 24.2669 19.4421 24.6645C19.8354 25.7047 21.4529 27.5409 24.1893 28.4439C26.6083 29.2393 32.4893 29.6832 39.6101 26.8984C47.5775 23.777 53.8064 15.1017 51.9771 7.83403C50.1476 0.459094 38.0529 -1.97362 26.6083 2.14205C19.8052 4.59052 12.4273 8.44598 7.12081 13.4647C0.816382 19.4316 -0.181563 24.6186 0.226628 26.7915C1.69339 34.5027 12.2007 39.5214 16.4035 43.2394C16.1918 43.3618 15.995 43.4691 15.829 43.5609C13.7274 44.6165 5.71468 48.8546 3.71911 53.3377C1.45153 58.4174 4.08224 62.0593 5.8207 62.5485C11.218 64.0635 16.7663 61.3401 19.7446 56.8415C22.7229 52.3432 22.3601 46.4983 20.9844 43.8208C20.9692 43.7903 20.9543 43.7595 20.9238 43.7289C21.4681 43.4077 22.0274 43.071 22.5718 42.7498C23.5723 42.1512 24.5855 41.5747 25.6107 41.0206C25.0965 42.4437 24.7184 44.142 24.5372 46.5902C24.3102 49.4669 25.4742 53.1999 27.0013 54.6686C27.6818 55.3117 28.4829 55.3268 28.9971 55.3268C30.781 55.3268 31.5825 53.8273 32.4744 52.0525C33.5628 49.88 34.5455 47.3554 34.5455 47.3554C34.5455 47.3554 33.3209 54.1794 36.6471 54.1794C37.8564 54.1794 39.081 52.588 39.6254 51.7772V51.7923C39.6254 51.7923 39.6555 51.7463 39.7161 51.6394C39.8371 51.4405 39.9126 51.3178 39.9126 51.3178V51.2876C40.3964 50.4306 41.4851 48.4874 43.1026 45.259C45.189 41.0974 47.1998 35.8953 47.1998 35.8953C47.1998 35.8953 47.3813 37.1651 48.0009 39.2766C48.364 40.5159 49.1195 41.8777 49.7245 43.1934C49.2407 43.8822 48.9382 44.2644 48.9382 44.2644L48.9535 44.2799C48.5602 44.7999 48.1371 45.366 47.6683 45.9172C46.0203 47.906 44.0552 50.1861 43.7828 50.8437C43.4651 51.624 43.541 52.1903 44.1459 52.6493C44.5843 52.986 45.3702 53.0316 46.1717 52.986C47.6533 52.8787 48.6964 52.5115 49.2102 52.2822C50.0117 51.9915 50.949 51.5475 51.8257 50.8896C53.4436 49.6808 54.4259 47.9519 54.3355 45.6724C54.2901 44.4177 53.8819 43.1629 53.3829 41.9846C53.5343 41.7707 53.6702 41.5564 53.8216 41.3422C56.3764 37.5628 58.3571 33.4163 58.3571 33.4163C58.3571 33.4163 58.5387 34.6861 59.1582 36.798C59.4607 37.869 60.0806 39.0318 60.6247 40.1639C58.2209 42.1379 56.7393 44.4328 56.2101 45.9323C55.2579 48.7171 55.9984 49.9715 57.4045 50.2622C58.0394 50.4 58.9465 50.0939 59.6118 49.8032C60.4584 49.5279 61.4563 49.0537 62.4089 48.3496C64.0267 47.1411 65.5836 45.4578 65.4928 43.1783C65.4474 42.1379 65.1754 41.1125 64.7974 40.1179C66.8383 39.2615 69.469 38.787 72.825 39.1847C80.0217 40.0415 81.4428 44.5857 81.1704 46.4986C80.8984 48.411 79.3866 49.4514 78.8879 49.7727C78.3886 50.0942 78.2226 50.2012 78.268 50.4306C78.3283 50.7672 78.5702 50.7521 78.9936 50.6908C79.5834 50.5838 82.7734 49.1453 82.9092 45.6262C83.1362 41.1279 78.9028 36.2165 71.4192 36.2625ZM15.9045 55.2045C13.5157 57.836 10.1899 58.8306 8.75358 57.9893C7.2116 57.0863 7.81626 53.1999 10.7491 50.4155C12.533 48.7171 14.8311 47.1408 16.3581 46.1771C16.7057 45.9628 17.2199 45.657 17.8398 45.2744C17.9455 45.213 18.0061 45.1825 18.0061 45.1825L18.3689 44.9528C19.4421 48.931 18.4143 52.4351 15.9045 55.2045ZM33.2908 43.2394C32.4592 45.2898 30.7207 50.5379 29.6624 50.2471C28.7553 50.0024 28.1957 46.0242 29.4809 42.0919C30.1309 40.1179 31.5066 37.7617 32.3081 36.8439C33.6082 35.3749 35.0445 34.885 35.392 35.4822C35.8307 36.2625 33.8047 41.9541 33.2908 43.2394ZM47.6381 50.1858C47.2902 50.3695 46.9579 50.4919 46.8065 50.4C46.7008 50.3387 46.9579 50.0939 46.9579 50.0939C46.9579 50.0939 48.757 48.1357 49.4674 47.2481C49.8759 46.728 50.3593 46.116 50.8735 45.4273V45.6262C50.8735 47.9673 48.6357 49.5433 47.6378 50.1858H47.6381ZM58.7047 47.6307C58.4476 47.4469 58.493 46.835 59.3547 44.9223C59.6874 44.1726 60.4733 42.9181 61.8191 41.7093C61.9702 42.1989 62.0762 42.6734 62.061 43.117C62.0457 46.0701 59.9597 47.1716 58.7047 47.6307Z" fill="#CD6799"/>
</svg>
