<svg width="79" height="79" viewBox="0 0 79 79" fill="none" xmlns="http://www.w3.org/2000/svg">
<path d="M69.125 14.8125H9.875C8.56549 14.8125 7.30962 15.3327 6.38366 16.2587C5.4577 17.1846 4.9375 18.4405 4.9375 19.75V59.25C4.9375 60.5595 5.4577 61.8154 6.38366 62.7413C7.30962 63.6673 8.56549 64.1875 9.875 64.1875H69.125C70.4345 64.1875 71.6904 63.6673 72.6163 62.7413C73.5423 61.8154 74.0625 60.5595 74.0625 59.25V19.75C74.0625 18.4405 73.5423 17.1846 72.6163 16.2587C71.6904 15.3327 70.4345 14.8125 69.125 14.8125V14.8125ZM63.6937 19.75L39.5 36.4881L15.3062 19.75H63.6937ZM9.875 59.25V21.9966L38.0928 41.5244C38.5061 41.8111 38.997 41.9647 39.5 41.9647C40.003 41.9647 40.4939 41.8111 40.9072 41.5244L69.125 21.9966V59.25H9.875Z" fill="white"/>
</svg>
