<svg width="62" height="64" viewBox="0 0 62 64" fill="none" xmlns="http://www.w3.org/2000/svg">
<path fill-rule="evenodd" clip-rule="evenodd" d="M31 0C13.8725 0 0 14.32 0 32C0 46.16 8.87375 58.12 21.1962 62.36C22.7462 62.64 23.3275 61.68 23.3275 60.84C23.3275 60.08 23.2887 57.56 23.2887 54.88C15.5 56.36 13.485 52.92 12.865 51.12C12.5162 50.2 11.005 47.36 9.6875 46.6C8.6025 46 7.0525 44.52 9.64875 44.48C12.09 44.44 13.8337 46.8 14.415 47.76C17.205 52.6 21.6612 51.24 23.4437 50.4C23.715 48.32 24.5287 46.92 25.42 46.12C18.5225 45.32 11.315 42.56 11.315 30.32C11.315 26.84 12.5162 23.96 14.4925 21.72C14.1825 20.92 13.0975 17.64 14.8025 13.24C14.8025 13.24 17.3987 12.4 23.3275 16.52C25.8075 15.8 28.4425 15.44 31.0775 15.44C33.7125 15.44 36.3475 15.8 38.8275 16.52C44.7562 12.36 47.3525 13.24 47.3525 13.24C49.0575 17.64 47.9725 20.92 47.6625 21.72C49.6388 23.96 50.84 26.8 50.84 30.32C50.84 42.6 43.5938 45.32 36.6962 46.12C37.82 47.12 38.7887 49.04 38.7887 52.04C38.7887 56.32 38.75 59.76 38.75 60.84C38.75 61.68 39.3312 62.68 40.8812 62.36C47.0352 60.2153 52.3827 56.1325 56.1711 50.6863C59.9595 45.2401 61.9981 38.7048 62 32C62 14.32 48.1275 0 31 0Z" fill="white"/>
</svg>
