<svg width="64" height="64" viewBox="0 0 64 64" fill="none" xmlns="http://www.w3.org/2000/svg">
<path d="M32 1.27979C15.0336 1.27979 1.27997 15.0334 1.27997 31.9998C1.27997 48.9662 15.0336 62.7198 32 62.7198C48.9664 62.7198 62.72 48.9662 62.72 31.9998C62.72 15.0334 48.9664 1.27979 32 1.27979ZM24.48 44.7326H18.2592V24.7134H24.48V44.7326ZM21.3312 22.2558C19.3664 22.2558 18.096 20.8638 18.096 19.1422C18.096 17.3854 19.4048 16.035 21.4112 16.035C23.4176 16.035 24.6464 17.3854 24.6848 19.1422C24.6848 20.8638 23.4176 22.2558 21.3312 22.2558ZM47.2 44.7326H40.9792V33.6382C40.9792 31.0558 40.0768 29.3022 37.8272 29.3022C36.1088 29.3022 35.088 30.4894 34.6368 31.6318C34.4704 32.0382 34.4288 32.6142 34.4288 33.187V44.7294H28.2048V31.0974C28.2048 28.5982 28.1248 26.5086 28.0416 24.7102H33.4464L33.7312 27.491H33.856C34.6752 26.1854 36.6816 24.259 40.0384 24.259C44.1312 24.259 47.2 27.0014 47.2 32.8958V44.7326Z" fill="#FDF4F4"/>
</svg>
