<svg width="68" height="94" viewBox="0 0 68 94" fill="none" xmlns="http://www.w3.org/2000/svg">
<path d="M17 94C26.384 94 34 86.9813 34 78.3333V62.6666H17C7.616 62.6666 0 69.6853 0 78.3333C0 86.9813 7.616 94 17 94Z" fill="#0ACF83"/>
<path d="M0 47C0 38.352 7.616 31.3334 17 31.3334H34V62.6667H17C7.616 62.6667 0 55.648 0 47Z" fill="#A259FF"/>
<path d="M0 15.6667C0 7.01867 7.616 0 17 0H34V31.3333H17C7.616 31.3333 0 24.3147 0 15.6667Z" fill="#F24E1E"/>
<path d="M34 0H51C60.384 0 68 7.01867 68 15.6667C68 24.3147 60.384 31.3333 51 31.3333H34V0Z" fill="#FF7262"/>
<path d="M68 47C68 55.648 60.384 62.6667 51 62.6667C41.616 62.6667 34 55.648 34 47C34 38.352 41.616 31.3334 51 31.3334C60.384 31.3334 68 38.352 68 47Z" fill="#1ABCFE"/>
</svg>
