<svg width="98" height="105" viewBox="0 0 98 105" fill="none" xmlns="http://www.w3.org/2000/svg">
<path d="M22.0041 68.5453C32.6287 69.2241 34.8994 68.978 34.8994 70.9939C34.8994 75.0955 20.5603 75.1078 20.5603 71.3057C20.5625 70.2618 21.28 69.3779 22.0041 68.5453ZM28.1181 44.625C21.0547 44.625 20.7353 53.7448 27.9541 53.7448C35.0656 53.7448 34.8906 44.625 28.1181 44.625ZM98 16.4062V88.5938C98 91.2045 96.8938 93.7083 94.9246 95.5543C92.9555 97.4004 90.2848 98.4375 87.5 98.4375H10.5C7.71523 98.4375 5.04451 97.4004 3.07538 95.5543C1.10625 93.7083 0 91.2045 0 88.5938L0 16.4062C0 13.7955 1.10625 11.2917 3.07538 9.44567C5.04451 7.59961 7.71523 6.5625 10.5 6.5625H87.5C90.2848 6.5625 92.9555 7.59961 94.9246 9.44567C96.8938 11.2917 98 13.7955 98 16.4062ZM48.3438 30.6202C48.3438 33.5918 50.1769 35.3124 53.3444 35.3124C56.5687 35.3124 58.4041 33.5918 58.4041 30.6202C58.4041 27.6486 56.5731 26.0449 53.3488 26.0449C50.1813 26.0449 48.3438 27.6527 48.3438 30.6202ZM43.5706 39.9902H32.7316C27.2628 38.647 14.8903 38.9956 14.8903 49.5776C14.8903 53.4331 16.9466 56.1401 19.67 57.3932C16.2378 60.3401 14.6125 61.7285 14.6125 63.6973C14.6125 65.1062 15.2228 66.4084 17.0581 67.1344C15.1113 68.857 13.9956 70.1039 13.9956 72.45C14 76.5659 17.8347 78.9551 27.895 78.9551C37.5681 78.9551 43.1791 75.5692 43.1791 69.5769C43.1791 62.0566 37.0037 62.3335 22.4481 61.5009L24.2812 58.7467C28 59.7188 40.5103 60.0243 40.5103 50.0452C40.5103 47.6479 39.4537 45.9806 38.4541 44.7809L43.5684 44.4158L43.5706 39.9902ZM62.02 62.516L59.1762 62.151C58.3406 62.0464 58.2859 61.9459 58.2859 61.1071V39.4816H46.7797L46.1694 43.7001C49.6147 44.8383 49.8881 44.6968 49.8881 45.7857V61.1133C49.8881 62.2658 49.8203 62.0525 46.1694 62.5222V66.636H62.0113L62.02 62.516ZM84 64.5996L82.4972 60.012C73.5438 63.1641 74.2175 57.467 74.2175 56.5811V44.1287H82.4972V38.9177H74.6616C74.0338 38.9177 74.2241 39.4345 74.2241 30.9955H68.9347C68.3244 36.6762 66.3797 38.9689 61.4972 39.4898V44.1287C65.975 44.1287 65.8328 43.9544 65.8328 44.6496V58.3017C65.8328 64.1915 68.3331 66.6914 74.9481 66.6914C78.1091 66.6914 81.6091 65.7009 84 64.5996Z" fill="black"/>
</svg>
