<svg width="114" height="97" viewBox="0 0 114 97" fill="none" xmlns="http://www.w3.org/2000/svg">
<path d="M103.348 15.2472L82.8068 6.83249C81.6468 6.35658 80.3415 6.19953 79.0718 6.38311C77.8022 6.56669 76.6311 7.08181 75.721 7.85705L8.47882 60.0188C7.66298 60.6487 7.17462 61.5286 7.12117 62.4648C7.06772 63.4011 7.45356 64.3171 8.19382 65.0113C8.28288 65.0931 8.37195 65.1719 8.46813 65.2447L13.9579 69.4884C14.6753 70.044 15.5987 70.3682 16.5677 70.4047C17.5367 70.4413 18.4902 70.1879 19.2625 69.6885L100.256 17.4297C100.868 17.0347 101.597 16.7929 102.361 16.7314C103.126 16.6699 103.896 16.7912 104.583 17.0817C105.271 17.3721 105.85 17.8202 106.255 18.3755C106.66 18.9307 106.875 19.5711 106.875 20.2246V20.0215C106.875 19.0239 106.544 18.0466 105.92 17.202C105.296 16.3574 104.405 15.6798 103.348 15.2472Z" fill="#0065A9"/>
<path d="M103.348 81.7528L82.8068 90.1706C81.6464 90.6452 80.3415 90.8015 79.0723 90.618C77.803 90.4344 76.632 89.9201 75.721 89.1461L8.47882 36.9813C7.66298 36.3514 7.17462 35.4715 7.12117 34.5352C7.06772 33.599 7.45356 32.683 8.19382 31.9888C8.28288 31.9069 8.37195 31.8281 8.46813 31.7554L13.9579 27.5116C14.676 26.9538 15.6015 26.6282 16.5729 26.5916C17.5444 26.555 18.5 26.8098 19.2732 27.3116L100.256 79.5703C100.868 79.9653 101.597 80.2072 102.361 80.2687C103.126 80.3302 103.896 80.2089 104.583 79.9184C105.271 79.6279 105.85 79.1799 106.255 78.6246C106.66 78.0693 106.875 77.429 106.875 76.7755V76.9938C106.871 77.9887 106.538 78.9626 105.915 79.8042C105.291 80.6458 104.402 81.3211 103.348 81.7528Z" fill="#007ACC"/>
<path d="M82.8067 90.1704C81.6463 90.645 80.3414 90.8013 79.0722 90.6178C77.8029 90.4343 76.6319 89.92 75.7209 89.1459C76.2325 89.5755 76.8817 89.8671 77.5873 89.9841C78.2928 90.1012 79.0232 90.0384 79.687 89.8037C80.3508 89.5691 80.9184 89.173 81.3187 88.665C81.7191 88.157 81.9343 87.5598 81.9375 86.9482V10.0515C81.9381 9.43701 81.7243 8.83622 81.3233 8.3252C80.9223 7.81419 80.352 7.41595 79.6848 7.18093C79.0175 6.94591 78.2833 6.88468 77.5751 7.00501C76.8669 7.12534 76.2167 7.42181 75.7067 7.85686C76.617 7.08189 77.7878 6.56674 79.0572 6.38265C80.3266 6.19856 81.6319 6.35463 82.7925 6.82926L103.33 15.2319C104.39 15.6623 105.285 16.339 105.912 17.1837C106.54 18.0285 106.873 19.0069 106.875 20.0061V76.9936C106.875 77.992 106.544 78.9702 105.919 79.8154C105.295 80.6606 104.402 81.3385 103.345 81.7709L82.8067 90.1704Z" fill="#1F9CF0"/>
</svg>
